# xmcd
#
# Track frame offsets: 
#        150
#        11125
#        23325
#        39335
#        48757
#        67602
#        79912
#        95240
#        105265
#        118597
#        130870
#        141022
#        151200
#        164905
#        174977
#        188995
#        202190
#        216197
#        230110
#        242072
#        255325
#        266242
#
# Disc length: 3752 seconds
#
# Revision: 7
# Processed by: cddbd v1.5.2PL0 Copyright (c) Steve Scherf et al.
# Submitted via: ExactAudioCopyFreeDBPlugin 1.0
#
DISCID=2d0ea616
DTITLE=The Rising Sons - Rising Sons Featuring Taj Mahal and Ry Cooder
DYEAR=1992
DGENRE=Blues
TTITLE0=Statesboro Blues
TTITLE1=If the River Was Whiskey (Divin' Duck Blues)
TTITLE2=By and By (Poor Me)
TTITLE3=Candy Man
TTITLE4=2:10 Train
TTITLE5=Let the Good Times Roll
TTITLE6=44 Blues
TTITLE7=11th Street Overcrossing
TTITLE8=Corrin, Corrina
TTITLE9=Tulsa County
TTITLE10=Walkin' Down the Line
TTITLE11=The Girl with Green Eyes
TTITLE12=Sunny's Dream
TTITLE13=Spanish Lace Blues
TTITLE14=The Devil's Got My Woman
TTITLE15=Take a Giant Step
TTITLE16=Flyin' So High
TTITLE17=Dust My Broom
TTITLE18=Last Fair Deal Gone Down
TTITLE19=Baby, What You Want Me to Do?
TTITLE20=Statesboro Blues [version 2]
TTITLE21=I Got a Little
EXTD=1992 Sony Music, Columbia/Legacy  CK52828\nEntry:  Mike Lempriere
EXTD=mikel@speakeasy.org  19-Dec-96\n YEAR: 1992 ID3G:   0
EXTT0=
EXTT1=
EXTT2=
EXTT3=
EXTT4=
EXTT5=
EXTT6=
EXTT7=
EXTT8=
EXTT9=
EXTT10=
EXTT11=
EXTT12=
EXTT13=
EXTT14=
EXTT15=
EXTT16=
EXTT17=
EXTT18=
EXTT19=
EXTT20=
EXTT21="I Got A LIttle" is a mono recording\n
PLAYORDER=
